<svg width="50" height="51" viewBox="0 0 50 51" fill="none" xmlns="http://www.w3.org/2000/svg">
<path d="M17.5556 7.33948L17.3424 6.06082C16.7174 6.165 16.2593 6.7058 16.2593 7.33948L17.5556 7.33948ZM48.6667 2.1543H49.963V0.62407L48.4536 0.875638L48.6667 2.1543ZM48.8798 13.8033C49.586 13.6856 50.063 13.0177 49.9453 12.3116C49.8276 11.6054 49.1597 11.1283 48.4536 11.246L48.8798 13.8033ZM17.3424 16.4312C16.6363 16.5489 16.1592 17.2168 16.2769 17.923C16.3946 18.6291 17.0625 19.1062 17.7687 18.9885L17.3424 16.4312ZM16.2593 41.0432C16.2593 44.6228 13.3574 47.5247 9.77778 47.5247V50.1173C14.7893 50.1173 18.8519 46.0547 18.8519 41.0432H16.2593ZM9.77778 47.5247C6.19815 47.5247 3.2963 44.6228 3.2963 41.0432H0.703704C0.703704 46.0547 4.76631 50.1173 9.77778 50.1173V47.5247ZM3.2963 41.0432C3.2963 37.4636 6.19815 34.5617 9.77778 34.5617V31.9691C4.76631 31.9691 0.703704 36.0317 0.703704 41.0432H3.2963ZM9.77778 34.5617C13.3574 34.5617 16.2593 37.4636 16.2593 41.0432H18.8519C18.8519 36.0317 14.7893 31.9691 9.77778 31.9691V34.5617ZM18.8519 41.0432V7.33948H16.2593V41.0432H18.8519ZM48.4536 0.875638L17.3424 6.06082L17.7687 8.61814L48.8798 3.43296L48.4536 0.875638ZM48.4536 11.246L17.3424 16.4312L17.7687 18.9885L48.8798 13.8033L48.4536 11.246ZM47.3704 35.858C47.3704 39.4376 44.4685 42.3395 40.8889 42.3395V44.9321C45.9004 44.9321 49.963 40.8695 49.963 35.858H47.3704ZM40.8889 42.3395C37.3093 42.3395 34.4074 39.4376 34.4074 35.858H31.8148C31.8148 40.8695 35.8774 44.9321 40.8889 44.9321V42.3395ZM34.4074 35.858C34.4074 32.2784 37.3093 29.3765 40.8889 29.3765V26.7839C35.8774 26.7839 31.8148 30.8465 31.8148 35.858H34.4074ZM40.8889 29.3765C44.4685 29.3765 47.3704 32.2784 47.3704 35.858H49.963C49.963 30.8465 45.9004 26.7839 40.8889 26.7839V29.3765ZM49.963 35.858V2.1543H47.3704V35.858H49.963Z" fill="#212A30"/>
</svg>
