<svg width="50" height="50" viewBox="0 0 50 50" fill="none" xmlns="http://www.w3.org/2000/svg">
<path d="M17.5556 7.18519L17.3424 5.90653C16.7174 6.0107 16.2593 6.55151 16.2593 7.18519L17.5556 7.18519ZM48.6667 2H49.963V0.469773L48.4536 0.721341L48.6667 2ZM48.8798 13.649C49.586 13.5313 50.063 12.8634 49.9453 12.1573C49.8276 11.4511 49.1597 10.974 48.4536 11.0917L48.8798 13.649ZM17.3424 16.2769C16.6363 16.3946 16.1592 17.0625 16.2769 17.7687C16.3946 18.4748 17.0625 18.9519 17.7687 18.8342L17.3424 16.2769ZM16.2593 40.8889C16.2593 44.4685 13.3574 47.3704 9.77778 47.3704V49.963C14.7893 49.963 18.8519 45.9004 18.8519 40.8889H16.2593ZM9.77778 47.3704C6.19815 47.3704 3.2963 44.4685 3.2963 40.8889H0.703704C0.703704 45.9004 4.76631 49.963 9.77778 49.963V47.3704ZM3.2963 40.8889C3.2963 37.3093 6.19815 34.4074 9.77778 34.4074V31.8148C4.76631 31.8148 0.703704 35.8774 0.703704 40.8889H3.2963ZM9.77778 34.4074C13.3574 34.4074 16.2593 37.3093 16.2593 40.8889H18.8519C18.8519 35.8774 14.7893 31.8148 9.77778 31.8148V34.4074ZM18.8519 40.8889V7.18519H16.2593V40.8889H18.8519ZM48.4536 0.721341L17.3424 5.90653L17.7687 8.46384L48.8798 3.27866L48.4536 0.721341ZM48.4536 11.0917L17.3424 16.2769L17.7687 18.8342L48.8798 13.649L48.4536 11.0917ZM47.3704 35.7037C47.3704 39.2833 44.4685 42.1852 40.8889 42.1852V44.7778C45.9004 44.7778 49.963 40.7152 49.963 35.7037H47.3704ZM40.8889 42.1852C37.3093 42.1852 34.4074 39.2833 34.4074 35.7037H31.8148C31.8148 40.7152 35.8774 44.7778 40.8889 44.7778V42.1852ZM34.4074 35.7037C34.4074 32.1241 37.3093 29.2222 40.8889 29.2222V26.6296C35.8774 26.6296 31.8148 30.6922 31.8148 35.7037H34.4074ZM40.8889 29.2222C44.4685 29.2222 47.3704 32.1241 47.3704 35.7037H49.963C49.963 30.6922 45.9004 26.6296 40.8889 26.6296V29.2222ZM49.963 35.7037V2H47.3704V35.7037H49.963Z" fill="#90E39A"/>
</svg>
